PathFileType	4	(X/Y/Z)	s04c0101.trc
DataRate	CameraRate	NumFrames	NumMarkers	Units	OrigDataRate	OrigDataStartFrame	OrigNumFrames
200	200	4	51	mm	200	0	2000
Frame#	Time	racr			lacr			c7			jug			rlel			rdr			llel			ldr			s2			lic			ric			lasi			rasi			rpsi			lpsi			rgt			lgt			rth1			rth2			rth3			rth4			rlfc			rmfc			rsh1			rsh2			rsh3			rsh4			rlmal			rmmal			rcal			rtoe			rmt5			lth1			lth2			lth4			lth3			llfc			lmfc			lsh1			lsh2			lsh3			lsh4			llmal			lmmal			lcal			ltoe			lmt1			lmt5			SBIKE			LBIKE			RBIKE			
		X1	Y1	Z1	X2	Y2	Z2	X3	Y3	Z3	X4	Y4	Z4	X5	Y5	Z5	X6	Y6	Z6	X7	Y7	Z7	X8	Y8	Z8	X9	Y9	Z9	X10	Y10	Z10	X11	Y11	Z11	X12	Y12	Z12	X13	Y13	Z13	X14	Y14	Z14	X15	Y15	Z15	X16	Y16	Z16	X17	Y17	Z17	X18	Y18	Z18	X19	Y19	Z19	X20	Y20	Z20	X21	Y21	Z21	X22	Y22	Z22	X23	Y23	Z23	X24	Y24	Z24	X25	Y25	Z25	X26	Y26	Z26	X27	Y27	Z27	X28	Y28	Z28	X29	Y29	Z29	X30	Y30	Z30	X31	Y31	Z31	X32	Y32	Z32	X33	Y33	Z33	X34	Y34	Z34	X35	Y35	Z35	X36	Y36	Z36	X37	Y37	Z37	X38	Y38	Z38	X39	Y39	Z39	X40	Y40	Z40	X41	Y41	Z41	X42	Y42	Z42	X43	Y43	Z43	X44	Y44	Z44	X45	Y45	Z45	X46	Y46	Z46	X47	Y47	Z47	X48	Y48	Z48	X49	Y49	Z49	X50	Y50	Z50	X51	Y51	Z51	
0	0.0000	476.705459	1453.926304	-144.670965	468.687161	1451.786188	-427.519981	446.720323	1499.952202	-293.139580	468.256180	1357.092473	-292.259799	534.085106	1149.442240	-46.800504	691.719357	906.063626	-121.539373	555.919614	1182.704111	-512.504521	687.665855	901.550697	-462.627265	-69.106813	1183.737506	-289.857692	98.665281	1190.157871	-441.357399	91.859052	1174.753146	-124.895918	0.000000	0.000000	-0.000000	130.925940	1119.800927	-168.492590	-34.362752	1220.757395	-244.889688	-37.790143	1228.484266	-319.038364	30.470517	1111.286745	-111.927719	45.560616	1124.777015	-482.320908	105.004457	961.173437	-92.979070	159.555799	892.232742	-101.842152	175.674979	807.916576	-108.660633	189.455204	907.605078	-118.956338	218.936820	669.934772	-136.150534	190.708274	652.370035	-246.545555	152.007861	557.701169	-107.311588	138.159236	472.366957	-119.841492	77.925942	408.410005	-124.794080	165.061918	461.597367	-145.986223	23.671469	265.153661	-131.630221	43.160258	271.120886	-217.268144	-50.907415	235.384764	-171.057549	247.146013	199.815958	-160.301549	178.773171	180.289877	-105.189656	110.435856	1071.421015	-492.535638	196.233531	1064.286759	-498.070161	209.395601	1094.793168	-481.294161	268.997756	1013.882126	-510.834585	408.014155	929.582196	-494.108629	447.066189	913.701750	-386.635178	370.560974	819.445927	-509.764018	349.373334	738.501249	-482.611588	288.067894	674.951870	-474.185159	374.859923	730.927203	-453.907794	211.606887	552.064212	-452.726460	211.206195	557.840396	-365.548081	129.332819	537.740887	-404.782948	427.304309	497.043907	-421.356530	356.562365	482.171596	-367.918053	351.572335	465.417315	-479.062798	-187.543435	937.479396	-285.988202	-18.057923	79.249331	-484.860554	-18.269757	79.194827	-83.870385	
1	0.0050	476.718172	1453.923248	-144.707593	468.663184	1451.797790	-427.501494	446.717952	1499.952595	-293.146662	468.229690	1357.097869	-292.267048	534.097770	1149.474179	-46.812782	691.705095	906.054415	-121.529900	555.923894	1182.694428	-512.489339	687.671322	901.542605	-462.634489	-69.099228	1183.743300	-289.880644	98.668743	1190.177015	-441.395190	91.868012	1174.734650	-124.918743	0.000000	0.000000	-0.000000	130.944937	1119.798396	-168.463043	-34.346651	1220.760615	-244.913415	-37.786543	1228.508370	-319.025083	30.493321	1111.276773	-111.952110	45.569164	1124.785292	-482.322731	105.033259	961.160582	-92.977337	159.529676	892.235522	-101.866818	175.643097	807.912713	-108.680075	189.439765	907.614647	-118.930192	218.926242	669.923545	-136.177467	190.765190	652.335885	-246.362084	151.972852	557.709220	-107.302995	138.150222	472.358210	-119.831573	77.915031	408.413024	-124.798814	165.048557	461.562239	-145.979579	23.643956	265.156484	-131.642604	43.171906	271.119234	-217.304684	-50.923471	235.387203	-171.056601	247.136700	199.842912	-160.290836	178.759380	180.303255	-105.193309	110.442870	1071.425952	-492.558776	196.233702	1064.282016	-498.086987	209.428371	1094.803010	-481.297527	269.017461	1013.892389	-510.838435	408.007438	929.569090	-494.107435	447.106855	913.731586	-386.644994	370.678730	819.462796	-509.938954	349.393437	738.502244	-482.623782	288.068464	674.967654	-474.200563	374.864414	730.926688	-453.909779	211.620067	552.069550	-452.728926	211.181795	557.870312	-365.551996	129.330591	537.742510	-404.789317	427.302385	497.047518	-421.351272	356.584729	482.140829	-367.929763	351.578048	465.412114	-479.061518	-187.543610	937.487807	-285.998111	-18.069355	79.256981	-484.847137	-18.272655	79.198892	-83.893164	
2	0.0100	476.744471	1453.941154	-144.728537	468.665377	1451.802944	-427.535701	446.714001	1499.939182	-293.199984	468.248953	1357.098367	-292.311607	534.108569	1149.453923	-46.821250	691.699765	906.046214	-121.513431	555.919169	1182.691745	-512.471030	687.673946	901.540302	-462.619633	-69.093096	1183.747448	-289.880845	98.648240	1190.169844	-441.374779	91.869311	1174.740437	-124.906034	0.000000	0.000000	-0.000000	130.950362	1119.797488	-168.476072	-34.362666	1220.768237	-244.891302	-37.787709	1228.509609	-319.023722	30.473066	1111.284054	-111.946251	45.574312	1124.781244	-482.324137	105.023071	961.174704	-92.971135	159.510441	892.258093	-101.867744	175.636394	807.902711	-108.679480	189.418087	907.628164	-118.932613	218.892578	669.919377	-136.178724	190.736016	652.340959	-246.357023	151.914801	557.734978	-107.311946	138.131941	472.347536	-119.851437	77.887400	408.409834	-124.799961	165.006090	461.553193	-145.973731	23.636148	265.150981	-131.650129	43.137170	271.119614	-217.296835	-50.932524	235.381506	-171.069454	247.113784	199.845189	-160.305352	178.743282	180.303997	-105.209588	110.434923	1071.421683	-492.558520	196.238896	1064.284036	-498.091102	209.427386	1094.788051	-481.293358	269.015969	1013.887171	-510.836124	408.021367	929.567406	-494.096485	447.102388	913.724631	-386.635704	370.696116	819.449490	-509.943519	349.395078	738.498213	-482.623989	288.071819	674.954784	-474.209005	374.860053	730.914872	-453.898839	211.619297	552.069630	-452.736569	211.187231	557.855280	-365.553293	129.334180	537.737000	-404.785988	427.303792	497.041409	-421.342619	356.580733	482.134095	-367.938045	351.576513	465.411422	-479.060762	-187.541487	937.480366	-285.993187	-18.072264	79.268886	-484.848008	-18.263810	79.197476	-83.886156	
3	0.0150	476.779064	1453.935697	-144.798341	468.667569	1451.808099	-427.569908	446.721105	1500.033440	-293.298156	468.236993	1357.111882	-292.323231	534.095400	1149.500461	-46.819107	691.697651	906.055922	-121.540355	555.918580	1182.685975	-512.455333	687.681410	901.556605	-462.655394	-69.278921	1183.740776	-290.086116	98.665434	1190.166097	-441.390124	91.900807	1174.666960	-124.905332	0.000000	0.000000	-0.000000	130.863629	1119.991594	-168.520266	-34.363150	1220.776524	-244.892362	-38.234675	1228.748770	-318.822520	30.498871	1111.290759	-111.946931	45.571463	1124.789495	-482.336929	104.935937	961.114453	-92.754390	159.943713	891.786470	-101.781922	175.624892	807.907826	-108.680401	189.401012	907.627308	-118.928179	218.871236	669.922447	-136.168297	190.887563	652.273219	-246.297436	151.971837	557.682006	-107.343208	136.952905	471.447082	-120.696489	77.849878	408.415308	-124.810512	164.789156	461.325416	-146.272284	23.600544	265.175080	-131.476498	43.112983	271.111132	-217.312574	-50.687371	234.805468	-170.894189	247.116154	199.872300	-160.296579	178.739039	180.316620	-105.191164	110.432325	1071.418523	-492.566555	196.229988	1064.290788	-498.106356	209.223138	1094.970883	-481.621777	269.024454	1013.888058	-510.838303	408.009419	929.562634	-494.106397	447.087455	913.720812	-386.633726	370.699559	819.443345	-509.951108	349.432637	738.488497	-482.738124	288.153924	674.691103	-473.729393	374.896103	730.946330	-454.069178	211.815780	552.066704	-452.921992	211.126284	557.871173	-365.270636	129.335137	537.725931	-404.787607	427.308951	497.045714	-421.362825	356.577144	482.133402	-367.923765	351.587865	465.404704	-479.056541	-187.724837	937.413915	-286.798399	-18.052131	79.264563	-484.870482	-18.257934	79.206077	-83.883067	
